<?xml version="1.0" encoding="UTF-8" standalone="no"?>
<!-- Created with Inkscape (http://www.inkscape.org/) -->

<svg
   xmlns:dc="http://purl.org/dc/elements/1.1/"
   xmlns:cc="http://creativecommons.org/ns#"
   xmlns:rdf="http://www.w3.org/1999/02/22-rdf-syntax-ns#"
   xmlns:svg="http://www.w3.org/2000/svg"
   xmlns="http://www.w3.org/2000/svg"
   xmlns:sodipodi="http://sodipodi.sourceforge.net/DTD/sodipodi-0.dtd"
   xmlns:inkscape="http://www.inkscape.org/namespaces/inkscape"
   width="302"
   height="302"
   viewBox="0 0 79.904164 79.904166"
   version="1.1"
   id="svg83"
   sodipodi:docname="phildev-icon.svg"
   inkscape:export-filename="/home/philipp/git/academic-kickstart/static/logo/color/phildev-icon.png"
   inkscape:export-xdpi="162.75497"
   inkscape:export-ydpi="162.75497"
   inkscape:version="0.92.4 5da689c313, 2019-01-14">
  <defs
     id="defs77" />
  <sodipodi:namedview
     id="base"
     pagecolor="#ffffff"
     bordercolor="#666666"
     borderopacity="1.0"
     inkscape:pageopacity="0.0"
     inkscape:pageshadow="2"
     inkscape:zoom="3.959798"
     inkscape:cx="-33.314402"
     inkscape:cy="161.65179"
     inkscape:document-units="mm"
     inkscape:current-layer="layer1"
     showgrid="false"
     fit-margin-top="0.81111"
     fit-margin-left="16.40851"
     fit-margin-right="16.40851"
     fit-margin-bottom="0.81111"
     inkscape:window-width="3200"
     inkscape:window-height="1745"
     inkscape:window-x="0"
     inkscape:window-y="55"
     inkscape:window-maximized="1"
     units="px" />
  <metadata
     id="metadata80">
    <rdf:RDF>
      <cc:Work
         rdf:about="">
        <dc:format>image/svg+xml</dc:format>
        <dc:type
           rdf:resource="http://purl.org/dc/dcmitype/StillImage" />
        <dc:title></dc:title>
      </cc:Work>
    </rdf:RDF>
  </metadata>
  <g
     inkscape:label="Ebene 1"
     inkscape:groupmode="layer"
     id="layer1"
     transform="translate(-75.708632,-80.154992)">
    <path
       inkscape:connector-curvature="0"
       style="clip-rule:evenodd;fill:#138d90;fill-opacity:1;fill-rule:evenodd;stroke:none;stroke-width:0.02608306;stroke-opacity:1;image-rendering:optimizeQuality;shape-rendering:geometricPrecision;text-rendering:geometricPrecision"
       class="fil3"
       d="M 82.918856,114.27758 109.96698,87.229448 123.68667,101.9403 c 4.12113,4.25153 4.9297,8.73782 0.313,13.35452 0,0 0.0261,0.0261 0.0522,0.0261 l -11.68521,11.68521 c -2.26923,2.26923 -4.38196,4.82536 -1.33024,7.95533 l 1.93015,2.19098 8.16399,8.34658 21.23161,-21.23161 c 2.79089,-2.79089 3.02564,-7.22501 0.67816,-10.27673 l -7.74667,-7.77275 -4.72103,-4.7732 v -0.0261 l -1.87798,-1.904072 -5.79044,-5.79044 -9.31165,-9.62464 3.70379,-3.72988 31.09101,31.404002 c 0.28691,0.28691 0.54774,0.57383 0.78249,0.86074 l 0.313,0.313 -0.0261,0.0782 c 2.73872,3.83421 2.37355,9.2334 -1.06941,12.67636 l -27.20462,27.23071 -13.74577,-14.73693 c -1.46065,-1.51281 -2.50397,-3.05171 -3.02564,-4.6167 l -0.0522,-0.0522 h 0.0261 c -0.93899,-2.81696 -0.18258,-5.71219 2.76481,-8.68565 l 2.08664,-2.06056 -0.0522,-0.0522 9.57249,-9.57249 c 2.2953,-2.2953 4.40803,-4.85144 1.35632,-7.95533 l -1.93014,-2.21706 -8.164,-8.346582 -21.075114,21.075112 c -2.79088,2.79089 -3.02563,7.22501 -0.67816,10.27672 l 7.77275,7.74667 4.721044,4.79928 h -0.0261 l 1.90406,1.90407 5.79044,5.79044 8.94648,9.88547 -3.70379,3.72988 -30.751924,-31.63875 c -0.26083,-0.28691 -0.52166,-0.57382 -0.75641,-0.86074 l -0.313,-0.33908 0.0261,-0.0522 c -2.73872,-3.8603 -2.39964,-9.25949 1.04333,-12.67637 z"
       id="path59" />
  </g>
</svg>
